<svg width="39" height="39" viewBox="0 0 39 39" fill="none" xmlns="http://www.w3.org/2000/svg">
<path d="M19.5 7.71869C19.3375 7.71869 19.175 7.70244 19.0288 7.66994C18.8663 7.63744 18.72 7.58869 18.5737 7.53994C18.4275 7.47494 18.2812 7.39369 18.1512 7.31244C18.0212 7.21494 17.8913 7.11744 17.7775 7.00369C17.3225 6.54869 17.0625 5.93119 17.0625 5.28119C17.0625 4.63119 17.3225 4.01369 17.7775 3.55869C17.8913 3.44494 18.0212 3.34744 18.1512 3.24994C18.2812 3.16869 18.4275 3.08744 18.5737 3.03869C18.72 2.97369 18.8663 2.92494 19.0288 2.89244C19.8088 2.72994 20.6537 2.98994 21.2225 3.55869C21.6775 4.01369 21.9375 4.63119 21.9375 5.28119C21.9375 5.93119 21.6775 6.54869 21.2225 7.00369C20.7675 7.45869 20.1337 7.71869 19.5 7.71869Z" fill="white"/>
<path d="M19.5 15.0312C19.3375 15.0312 19.175 15.015 19.0288 14.9825C18.8663 14.95 18.72 14.9013 18.5737 14.8525C18.4275 14.7875 18.2812 14.7062 18.1512 14.625C18.0212 14.5275 17.8913 14.43 17.7775 14.3163C17.3225 13.8613 17.0625 13.2437 17.0625 12.5937C17.0625 11.9437 17.3225 11.3262 17.7775 10.8712C17.8913 10.7575 18.0212 10.66 18.1512 10.5625C18.2812 10.4812 18.4275 10.4 18.5737 10.3512C18.72 10.2862 18.8663 10.2375 19.0288 10.205C19.3375 10.14 19.6625 10.14 19.9712 10.205C20.1337 10.2375 20.28 10.2862 20.4263 10.3512C20.5725 10.4 20.7188 10.4812 20.8488 10.5625C20.9788 10.66 21.1087 10.7575 21.2225 10.8712C21.6775 11.3262 21.9375 11.9437 21.9375 12.5937C21.9375 13.2437 21.6775 13.8613 21.2225 14.3163C21.1087 14.43 20.9788 14.5275 20.8488 14.625C20.7188 14.7062 20.5725 14.7875 20.4263 14.8525C20.28 14.9013 20.1337 14.95 19.9712 14.9825C19.825 15.015 19.6625 15.0312 19.5 15.0312Z" fill="white"/>
<path d="M19.5 21.5312C19.3375 21.5312 19.175 21.5149 19.0288 21.4824C18.8663 21.4499 18.72 21.4012 18.5737 21.3524C18.4275 21.2874 18.2812 21.2062 18.1512 21.1249C18.0212 21.0274 17.8913 20.9299 17.7775 20.8162C17.6638 20.7024 17.5663 20.5887 17.4688 20.4424C17.3875 20.3124 17.3062 20.1662 17.2412 20.0199C17.1925 19.8737 17.1438 19.7274 17.1113 19.5649C17.0788 19.4187 17.0625 19.2562 17.0625 19.0937C17.0625 18.4437 17.3225 17.8262 17.7775 17.3712C17.8913 17.2574 18.0212 17.1599 18.1512 17.0624C18.2812 16.9812 18.4275 16.8999 18.5737 16.8349C18.72 16.7862 18.8663 16.7374 19.0288 16.7049C19.8088 16.5424 20.6537 16.8024 21.2225 17.3712C21.6775 17.8262 21.9375 18.4437 21.9375 19.0937C21.9375 19.2562 21.9212 19.4187 21.8887 19.5649C21.8562 19.7274 21.8075 19.8737 21.7425 20.0199C21.6938 20.1662 21.6125 20.3124 21.5312 20.4424C21.4338 20.5887 21.3362 20.7024 21.2225 20.8162C21.1087 20.9299 20.9788 21.0274 20.8488 21.1249C20.7188 21.2062 20.5725 21.2874 20.4263 21.3524C20.28 21.4012 20.1337 21.4499 19.9712 21.4824C19.825 21.5149 19.6625 21.5312 19.5 21.5312Z" fill="white"/>
<g opacity="0.6">
<path opacity="0.6" d="M19.5 27.2188C19.0775 27.2188 18.655 27.04 18.3462 26.7475C18.0537 26.4388 17.875 26.0163 17.875 25.5938C17.875 25.1713 18.0537 24.7488 18.3462 24.44C18.72 24.0663 19.2888 23.9038 19.8088 24.0013C19.9225 24.0175 20.02 24.05 20.1175 24.0988C20.215 24.1313 20.3125 24.18 20.3937 24.245C20.4912 24.31 20.5725 24.375 20.6538 24.44C20.9463 24.7488 21.125 25.1713 21.125 25.5938C21.125 26.0163 20.9463 26.4388 20.6538 26.7475C20.5725 26.8125 20.4912 26.8775 20.3937 26.9425C20.3125 27.0075 20.215 27.0563 20.1175 27.0888C20.02 27.1375 19.9225 27.17 19.8088 27.1863C19.7113 27.2025 19.5975 27.2188 19.5 27.2188Z" fill="white"/>
</g>
<g opacity="0.4">
<path opacity="0.4" d="M19.5 32.5C19.3375 32.5 19.175 32.4675 19.0288 32.4025C18.8825 32.3375 18.7525 32.2563 18.6387 32.1425C18.525 32.0288 18.4275 31.8988 18.3787 31.7525C18.3137 31.6063 18.2812 31.4438 18.2812 31.2813C18.2812 30.9563 18.4112 30.6475 18.6387 30.42C18.7525 30.3062 18.8825 30.225 19.0288 30.16C19.3375 30.03 19.6625 30.03 19.9712 30.16C20.1175 30.225 20.2475 30.3062 20.3613 30.42C20.475 30.5337 20.5563 30.6637 20.6213 30.81C20.6863 30.9562 20.7188 31.1188 20.7188 31.2813C20.7188 31.4438 20.6863 31.6063 20.6213 31.7525C20.5563 31.8988 20.475 32.0288 20.3613 32.1425C20.2475 32.2563 20.1175 32.3375 19.9712 32.4025C19.8087 32.4675 19.6625 32.5 19.5 32.5Z" fill="white"/>
</g>
<g opacity="0.2">
<path opacity="0.2" d="M19.5 35.8637C19.2887 35.8637 19.0775 35.7825 18.9313 35.62C18.7688 35.4737 18.6875 35.2625 18.6875 35.0512C18.6875 34.84 18.7688 34.6287 18.9313 34.4825C19.2238 34.1737 19.7762 34.1737 20.0687 34.4825C20.2312 34.6287 20.3125 34.84 20.3125 35.0512C20.3125 35.2625 20.2312 35.4737 20.0687 35.62C19.9225 35.7825 19.7112 35.8637 19.5 35.8637Z" fill="white"/>
</g>
<path d="M5.6875 15.0313C5.0375 15.0313 4.42 14.7713 3.965 14.3163C3.51 13.8613 3.25 13.2438 3.25 12.5938C3.25 11.96 3.51 11.3263 3.965 10.8713C4.85875 9.96128 6.5 9.96128 7.41 10.8713C7.865 11.3263 8.125 11.96 8.125 12.5938C8.125 13.2438 7.865 13.8613 7.41 14.3163C7.29625 14.43 7.16628 14.5275 7.03628 14.625C6.90628 14.7063 6.76001 14.7875 6.61376 14.8363C6.46751 14.9013 6.32121 14.95 6.15871 14.9825C6.01246 15.015 5.85 15.0313 5.6875 15.0313Z" fill="white"/>
<path d="M33.3125 15.0312C32.6788 15.0312 32.045 14.7713 31.59 14.3163C31.135 13.8613 30.875 13.2275 30.875 12.5937C30.875 12.4312 30.8913 12.2687 30.9238 12.1225C30.9563 11.96 31.005 11.8137 31.0537 11.6675C31.1187 11.5212 31.2 11.375 31.2812 11.245C31.3788 11.115 31.4763 10.985 31.59 10.8712C31.7038 10.7575 31.8337 10.66 31.9637 10.5625C32.0937 10.4812 32.24 10.4 32.3862 10.3512C32.5325 10.2862 32.6788 10.2375 32.8413 10.205C33.15 10.14 33.475 10.14 33.7837 10.205C33.9462 10.2375 34.0925 10.2862 34.2388 10.3512C34.385 10.4 34.5313 10.4812 34.6613 10.5625C34.7913 10.66 34.9212 10.7575 35.035 10.8712C35.1487 10.985 35.2463 11.115 35.3438 11.245C35.425 11.375 35.5063 11.5212 35.555 11.6675C35.62 11.8137 35.6687 11.96 35.7012 12.1225C35.7337 12.2687 35.75 12.4312 35.75 12.5937C35.75 13.2437 35.49 13.8613 35.035 14.3163C34.9212 14.43 34.7913 14.5275 34.6613 14.625C34.5313 14.7062 34.385 14.7875 34.2388 14.8525C34.0925 14.9013 33.9462 14.95 33.7837 14.9825C33.6212 15.015 33.475 15.0312 33.3125 15.0312Z" fill="white"/>
<g opacity="0.6">
<path opacity="0.6" d="M33.3125 20.7187C33.215 20.7187 33.1012 20.7025 33.0037 20.6862C32.89 20.67 32.7925 20.6375 32.695 20.5887C32.5975 20.5562 32.5 20.5075 32.4025 20.4425C32.3213 20.3937 32.24 20.3125 32.1587 20.2475C32.0937 20.1662 32.0125 20.085 31.9637 20.0037C31.8987 19.9062 31.85 19.8087 31.8175 19.7112C31.7688 19.6137 31.7363 19.5162 31.72 19.4187C31.7038 19.305 31.6875 19.2075 31.6875 19.0937C31.6875 18.6712 31.8662 18.2487 32.1587 17.94C32.24 17.875 32.3213 17.81 32.4025 17.745C32.5 17.68 32.5975 17.6312 32.695 17.5987C32.7925 17.55 32.89 17.5175 33.0037 17.5012C33.1987 17.4525 33.41 17.4525 33.6213 17.5012C33.735 17.5175 33.8325 17.55 33.93 17.5987C34.0275 17.6312 34.125 17.68 34.2062 17.745C34.3037 17.81 34.385 17.875 34.4663 17.94C34.7588 18.2487 34.9375 18.6712 34.9375 19.0937C34.9375 19.2075 34.9212 19.305 34.905 19.4187C34.8887 19.5162 34.8562 19.6137 34.8075 19.7112C34.775 19.8087 34.7263 19.9062 34.6613 20.0037C34.5963 20.085 34.5313 20.1662 34.4663 20.2475C34.385 20.3125 34.3037 20.3937 34.2062 20.4425C34.125 20.5075 34.0275 20.5562 33.93 20.5887C33.8325 20.6375 33.735 20.67 33.6213 20.6862C33.5238 20.7025 33.41 20.7187 33.3125 20.7187Z" fill="white"/>
</g>
<g opacity="0.6">
<path opacity="0.6" d="M5.6875 20.7188C5.265 20.7188 4.84246 20.54 4.53371 20.2475C4.24121 19.9388 4.0625 19.5163 4.0625 19.0938C4.0625 18.6713 4.24121 18.2488 4.53371 17.94C4.98871 17.485 5.70376 17.3388 6.30501 17.5988C6.51626 17.68 6.67879 17.7938 6.84129 17.94C7.13379 18.2488 7.3125 18.6713 7.3125 19.0938C7.3125 19.5163 7.13379 19.9388 6.84129 20.2475C6.53254 20.54 6.11 20.7188 5.6875 20.7188Z" fill="white"/>
</g>
<g opacity="0.4">
<path opacity="0.4" d="M33.3125 25.1875C32.9875 25.1875 32.6787 25.0575 32.4512 24.83C32.2237 24.6025 32.0938 24.2937 32.0938 23.9687C32.0938 23.8062 32.1262 23.66 32.1912 23.4975C32.2562 23.3512 32.3375 23.2212 32.4512 23.1075C32.7925 22.7662 33.3287 22.6525 33.7837 22.8475C33.93 22.9125 34.06 22.9937 34.1738 23.1075C34.2875 23.2212 34.3688 23.3512 34.4338 23.4975C34.4988 23.66 34.5312 23.8062 34.5312 23.9687C34.5312 24.2937 34.4013 24.6025 34.1738 24.83C34.06 24.9437 33.93 25.025 33.7837 25.09C33.6212 25.155 33.475 25.1875 33.3125 25.1875Z" fill="white"/>
</g>
<g opacity="0.4">
<path opacity="0.4" d="M5.6875 25.1875C5.3625 25.1875 5.0537 25.0575 4.8262 24.83C4.71245 24.7162 4.615 24.5862 4.56625 24.44C4.50125 24.2937 4.46875 24.1312 4.46875 23.9687C4.46875 23.8062 4.50125 23.66 4.56625 23.4975C4.615 23.3512 4.71245 23.2212 4.8262 23.1075C5.26495 22.6525 6.0938 22.6525 6.5488 23.1075C6.66255 23.2212 6.74375 23.3512 6.80875 23.4975C6.87375 23.66 6.90625 23.8062 6.90625 23.9687C6.90625 24.1312 6.87375 24.2937 6.80875 24.44C6.74375 24.5862 6.66255 24.7162 6.5488 24.83C6.3213 25.0575 6.0125 25.1875 5.6875 25.1875Z" fill="white"/>
</g>
<g opacity="0.2">
<path opacity="0.2" d="M33.3125 29.25C33.1988 29.25 33.1012 29.2338 33.0037 29.185C32.9062 29.1525 32.8088 29.0875 32.7438 29.0063C32.5813 28.86 32.5 28.6488 32.5 28.4375C32.5 28.2263 32.5813 28.015 32.7438 27.8688C33.0363 27.56 33.5887 27.56 33.8812 27.8688C34.0437 28.015 34.125 28.2263 34.125 28.4375C34.125 28.6488 34.0437 28.86 33.8812 29.0063C33.735 29.1688 33.5237 29.25 33.3125 29.25Z" fill="white"/>
</g>
<g opacity="0.2">
<path opacity="0.2" d="M5.6875 29.25C5.47625 29.25 5.26504 29.1688 5.11879 29.0063C4.95629 28.86 4.875 28.6488 4.875 28.4375C4.875 28.2263 4.95629 28.015 5.11879 27.8688C5.41129 27.56 5.96371 27.56 6.25621 27.8688C6.41871 28.015 6.5 28.2263 6.5 28.4375C6.5 28.6488 6.41871 28.86 6.25621 29.0063C6.10996 29.1688 5.89875 29.25 5.6875 29.25Z" fill="white"/>
</g>
<path d="M12.5938 11.375C12.4313 11.375 12.2688 11.3588 12.1225 11.3263C11.96 11.2938 11.8137 11.245 11.6675 11.18C11.505 11.1313 11.375 11.05 11.245 10.9688C11.0987 10.8713 10.985 10.7738 10.8713 10.66C10.4163 10.205 10.1562 9.57128 10.1562 8.93753C10.1562 8.30378 10.4163 7.67003 10.8713 7.21503C11.7813 6.30503 13.4062 6.30503 14.3162 7.21503C14.7712 7.67003 15.0312 8.28753 15.0312 8.93753C15.0312 9.58753 14.7712 10.205 14.3162 10.66C14.2025 10.7738 14.0725 10.8713 13.9425 10.9688C13.8125 11.05 13.6663 11.1313 13.52 11.18C13.3738 11.245 13.2275 11.2938 13.065 11.3263C12.9187 11.3588 12.7562 11.375 12.5938 11.375Z" fill="white"/>
<path d="M26.4062 11.375C26.2438 11.375 26.0813 11.3587 25.935 11.3262C25.7725 11.2937 25.6262 11.245 25.48 11.18C25.3337 11.1312 25.1875 11.05 25.0575 10.9688C24.9275 10.8713 24.7975 10.7737 24.6838 10.66C24.57 10.5462 24.4725 10.4162 24.375 10.2862C24.2937 10.1562 24.2125 10.01 24.1475 9.86375C24.0987 9.7175 24.05 9.57125 24.0175 9.40875C23.985 9.2625 23.9688 9.1 23.9688 8.9375C23.9688 8.30375 24.2288 7.67 24.6838 7.215C24.7975 7.10125 24.9275 7.00375 25.0575 6.90625C25.1875 6.825 25.3337 6.74375 25.48 6.695C25.6262 6.63 25.7725 6.58125 25.935 6.54875C26.2438 6.48375 26.5687 6.48375 26.8775 6.54875C27.04 6.58125 27.1863 6.63 27.3325 6.695C27.4788 6.74375 27.625 6.825 27.755 6.90625C27.885 7.00375 28.015 7.10125 28.1287 7.215C28.5837 7.67 28.8438 8.30375 28.8438 8.9375C28.8438 9.1 28.8275 9.2625 28.795 9.40875C28.7625 9.57125 28.7138 9.7175 28.665 9.86375C28.6 10.01 28.5188 10.1562 28.4375 10.2862C28.34 10.4162 28.2425 10.5462 28.1287 10.66C28.015 10.7737 27.885 10.8713 27.755 10.9688C27.625 11.05 27.4788 11.1312 27.3325 11.18C27.1863 11.245 27.04 11.2937 26.8775 11.3262C26.7312 11.3587 26.5687 11.375 26.4062 11.375Z" fill="white"/>
<path d="M12.5938 18.2813C12.4313 18.2813 12.2688 18.265 12.1225 18.2325C11.96 18.2 11.8137 18.1513 11.6675 18.1025C11.5212 18.0375 11.375 17.9563 11.245 17.875C11.0987 17.7775 10.985 17.68 10.8713 17.5663C10.4163 17.1113 10.1562 16.4775 10.1562 15.8438C10.1562 15.1938 10.4163 14.5763 10.8713 14.1213C11.7813 13.2113 13.4062 13.2113 14.3162 14.1213C14.7712 14.5763 15.0312 15.1938 15.0312 15.8438C15.0312 16.4938 14.7712 17.1113 14.3162 17.5663C13.8612 18.0213 13.2275 18.2813 12.5938 18.2813Z" fill="white"/>
<path d="M26.4062 18.2812C26.2438 18.2812 26.0813 18.265 25.935 18.2325C25.7725 18.2 25.6262 18.1513 25.48 18.0863C25.3337 18.0375 25.1875 17.9563 25.0575 17.875C24.9275 17.7775 24.7975 17.68 24.6838 17.5663C24.57 17.4525 24.4725 17.3225 24.375 17.1925C24.2937 17.0625 24.2125 16.9162 24.1475 16.77C24.0987 16.6237 24.05 16.4775 24.0175 16.315C23.985 16.1688 23.9688 16.0063 23.9688 15.8438C23.9688 15.21 24.2288 14.5762 24.6838 14.1212C24.7975 14.0075 24.9275 13.91 25.0575 13.8125C25.1875 13.7313 25.3337 13.65 25.48 13.6013C25.6262 13.5363 25.7725 13.4875 25.935 13.455C26.2438 13.39 26.5687 13.39 26.8775 13.455C27.04 13.4875 27.1863 13.5363 27.3325 13.6013C27.4788 13.65 27.625 13.7313 27.755 13.8125C27.885 13.91 28.015 14.0075 28.1287 14.1212C28.5837 14.5762 28.8438 15.21 28.8438 15.8438C28.8438 16.0063 28.8275 16.1688 28.795 16.315C28.7625 16.4775 28.7138 16.6237 28.665 16.77C28.6 16.9162 28.5188 17.0625 28.4375 17.1925C28.34 17.3225 28.2425 17.4525 28.1287 17.5663C28.015 17.68 27.885 17.7775 27.755 17.875C27.625 17.9563 27.4788 18.0375 27.3325 18.0863C27.1863 18.1513 27.04 18.2 26.8775 18.2325C26.7312 18.265 26.5687 18.2812 26.4062 18.2812Z" fill="white"/>
<g opacity="0.6">
<path opacity="0.6" d="M12.5938 23.9688C12.3825 23.9688 12.1712 23.92 11.9762 23.8388C11.765 23.7575 11.5862 23.6438 11.44 23.4975C11.2937 23.335 11.18 23.1563 11.0988 22.9613C11.0175 22.7663 10.9688 22.555 10.9688 22.3438C10.9688 21.9213 11.1475 21.4988 11.44 21.19C12.0412 20.5888 13.1463 20.5888 13.7475 21.19C14.04 21.4988 14.2188 21.9213 14.2188 22.3438C14.2188 22.555 14.17 22.7663 14.0887 22.9613C14.0075 23.1563 13.8938 23.335 13.7475 23.4975C13.4388 23.79 13.0162 23.9688 12.5938 23.9688Z" fill="white"/>
</g>
<g opacity="0.6">
<path opacity="0.6" d="M26.4062 23.9688C25.9837 23.9688 25.5612 23.79 25.2525 23.4975C24.96 23.1888 24.7812 22.7663 24.7812 22.3438C24.7812 21.9213 24.96 21.4988 25.2525 21.19C25.8537 20.5888 26.9425 20.5888 27.56 21.19C27.8525 21.4988 28.0312 21.9213 28.0312 22.3438C28.0312 22.4575 28.015 22.555 27.9987 22.6688C27.9825 22.7663 27.95 22.8638 27.9012 22.9613C27.8687 23.0588 27.82 23.1563 27.755 23.2375C27.69 23.335 27.625 23.4163 27.56 23.4975C27.2513 23.79 26.8287 23.9688 26.4062 23.9688Z" fill="white"/>
</g>
<g opacity="0.4">
<path opacity="0.4" d="M12.5938 28.8438C12.2688 28.8438 11.96 28.7138 11.7325 28.4863C11.6187 28.3725 11.5375 28.2425 11.4725 28.0963C11.4075 27.95 11.375 27.7875 11.375 27.625C11.375 27.4625 11.4075 27.3162 11.4725 27.1537C11.5375 27.0075 11.6187 26.8775 11.7325 26.7637C11.8462 26.65 11.9763 26.5687 12.1225 26.5037C12.415 26.3738 12.7562 26.3738 13.065 26.5037C13.2112 26.5687 13.3413 26.65 13.455 26.7637C13.6825 26.9912 13.8125 27.3 13.8125 27.625C13.8125 27.7875 13.78 27.95 13.715 28.0963C13.65 28.2425 13.5688 28.3725 13.455 28.4863C13.2275 28.7138 12.9188 28.8438 12.5938 28.8438Z" fill="white"/>
</g>
<g opacity="0.4">
<path opacity="0.4" d="M26.4062 28.8438C26.2437 28.8438 26.0813 28.8113 25.935 28.7463C25.7888 28.6813 25.6587 28.6 25.545 28.4863C25.4312 28.3725 25.3337 28.2425 25.285 28.0963C25.22 27.95 25.1875 27.7875 25.1875 27.625C25.1875 27.4625 25.22 27.3 25.285 27.1537C25.35 27.0075 25.4312 26.8775 25.545 26.7637C25.6587 26.65 25.7888 26.5687 25.935 26.5037C26.2275 26.3738 26.5687 26.3738 26.8775 26.5037C27.0237 26.5687 27.1538 26.65 27.2675 26.7637C27.3813 26.8775 27.4625 27.0075 27.5275 27.1537C27.5925 27.3 27.625 27.4625 27.625 27.625C27.625 27.7875 27.5925 27.95 27.5275 28.0963C27.4625 28.2425 27.3813 28.3725 27.2675 28.4863C27.04 28.7138 26.7313 28.8438 26.4062 28.8438Z" fill="white"/>
</g>
<g opacity="0.2">
<path opacity="0.2" d="M12.5938 32.5C12.3825 32.5 12.1713 32.4188 12.025 32.2563C11.8625 32.11 11.7812 31.8988 11.7812 31.6875C11.7812 31.4763 11.8625 31.265 12.025 31.1188C12.3175 30.81 12.87 30.81 13.1625 31.1188C13.325 31.265 13.4062 31.4763 13.4062 31.6875C13.4062 31.8988 13.325 32.11 13.1625 32.2563C13.0162 32.4188 12.805 32.5 12.5938 32.5Z" fill="white"/>
</g>
<g opacity="0.2">
<path opacity="0.2" d="M26.4062 32.5C26.2925 32.5 26.195 32.4838 26.0975 32.435C26 32.4025 25.9025 32.3375 25.8375 32.2563C25.7563 32.1913 25.6912 32.0938 25.6587 31.9963C25.61 31.8988 25.5938 31.8013 25.5938 31.6875C25.5938 31.4763 25.675 31.265 25.8375 31.1188C26.13 30.81 26.6825 30.81 26.975 31.1188C27.1375 31.265 27.2188 31.4763 27.2188 31.6875C27.2188 31.8013 27.2025 31.8988 27.1538 31.9963C27.1213 32.0938 27.0562 32.1913 26.975 32.2563C26.8287 32.4188 26.6175 32.5 26.4062 32.5Z" fill="white"/>
</g>
</svg>
