<svg width="25" height="24" viewBox="0 0 25 24" fill="none" xmlns="http://www.w3.org/2000/svg">
<path d="M17.0156 2.43005H7.01562C4.01562 2.43005 2.01562 4.43005 2.01562 7.43005V13.4301C2.01562 16.4301 4.01562 18.4301 7.01562 18.4301V20.5601C7.01562 21.3601 7.90563 21.8401 8.56563 21.3901L13.0156 18.4301H17.0156C20.0156 18.4301 22.0156 16.4301 22.0156 13.4301V7.43005C22.0156 4.43005 20.0156 2.43005 17.0156 2.43005ZM12.0156 14.6001C11.5956 14.6001 11.2656 14.2601 11.2656 13.8501C11.2656 13.4401 11.5956 13.1001 12.0156 13.1001C12.4356 13.1001 12.7656 13.4401 12.7656 13.8501C12.7656 14.2601 12.4356 14.6001 12.0156 14.6001ZM13.2756 10.4501C12.8856 10.7101 12.7656 10.8801 12.7656 11.1601V11.3701C12.7656 11.7801 12.4256 12.1201 12.0156 12.1201C11.6056 12.1201 11.2656 11.7801 11.2656 11.3701V11.1601C11.2656 10.0001 12.1156 9.43005 12.4356 9.21005C12.8056 8.96005 12.9256 8.79005 12.9256 8.53005C12.9256 8.03005 12.5156 7.62005 12.0156 7.62005C11.5156 7.62005 11.1056 8.03005 11.1056 8.53005C11.1056 8.94005 10.7656 9.28005 10.3556 9.28005C9.94563 9.28005 9.60563 8.94005 9.60563 8.53005C9.60563 7.20005 10.6856 6.12005 12.0156 6.12005C13.3456 6.12005 14.4256 7.20005 14.4256 8.53005C14.4256 9.67005 13.5856 10.2401 13.2756 10.4501Z" fill="white"/>
</svg>
