<svg width="25" height="24" viewBox="0 0 25 24" fill="none" xmlns="http://www.w3.org/2000/svg">
<path d="M8.79004 6.29C8.37004 6.29 8.04004 5.95 8.04004 5.54V2.75C8.04004 2.34 8.37004 2 8.79004 2C9.21004 2 9.54004 2.34 9.54004 2.75V5.53C9.54004 5.95 9.21004 6.29 8.79004 6.29Z" fill="white"/>
<path d="M16.21 6.29C15.79 6.29 15.46 5.95 15.46 5.54V2.75C15.46 2.33 15.8 2 16.21 2C16.63 2 16.96 2.34 16.96 2.75V5.53C16.96 5.95 16.63 6.29 16.21 6.29Z" fill="white"/>
<path d="M20.07 4.5C19.41 4.01 18.46 4.48 18.46 5.31V5.41C18.46 6.58 17.62 7.66 16.45 7.78C15.1 7.92 13.96 6.86 13.96 5.54V4.5C13.96 3.95 13.51 3.5 12.96 3.5H12.04C11.49 3.5 11.04 3.95 11.04 4.5V5.54C11.04 6.33 10.63 7.03 10.01 7.42C9.92 7.48 9.82 7.53 9.72 7.58C9.63 7.63 9.53 7.67 9.42 7.7C9.3 7.74 9.17 7.77 9.03 7.78C8.87 7.8 8.71 7.8 8.55 7.78C8.41 7.77 8.28 7.74 8.16 7.7C8.06 7.67 7.96 7.63 7.86 7.58C7.76 7.53 7.66 7.48 7.57 7.42C6.94 6.98 6.54 6.22 6.54 5.41V5.31C6.54 4.54 5.72 4.08 5.07 4.41C5.06 4.42 5.05 4.42 5.04 4.43C5 4.45 4.97 4.47 4.93 4.5C4.9 4.53 4.86 4.55 4.83 4.58C4.55 4.8 4.3 5.05 4.09 5.32C3.98 5.44 3.89 5.57 3.81 5.7C3.8 5.71 3.79 5.72 3.78 5.74C3.69 5.87 3.61 6.02 3.54 6.16C3.52 6.18 3.51 6.19 3.51 6.21C3.45 6.33 3.39 6.45 3.35 6.58C3.32 6.63 3.31 6.67 3.29 6.72C3.23 6.87 3.19 7.02 3.15 7.17C3.11 7.31 3.08 7.46 3.06 7.61C3.04 7.72 3.03 7.83 3.02 7.95C3.01 8.09 3 8.23 3 8.37V17.13C3 19.82 5.18 22 7.87 22H17.13C19.82 22 22 19.82 22 17.13V8.37C22 6.78 21.24 5.39 20.07 4.5ZM12.5 16.25H10.81V18C10.81 18.41 10.47 18.75 10.06 18.75C9.64 18.75 9.31 18.41 9.31 18V16.25H7.5C7.09 16.25 6.75 15.91 6.75 15.5C6.75 15.09 7.09 14.75 7.5 14.75H9.31V13C9.31 12.59 9.64 12.25 10.06 12.25C10.47 12.25 10.81 12.59 10.81 13V14.75H12.5C12.91 14.75 13.25 15.09 13.25 15.5C13.25 15.91 12.91 16.25 12.5 16.25Z" fill="white"/>
</svg>
