<svg width="16" height="16" viewBox="0 0 16 16" fill="none" xmlns="http://www.w3.org/2000/svg">
<path d="M8.66679 7.83335C8.54012 7.83335 8.41346 7.78668 8.31346 7.68668C8.12012 7.49335 8.12012 7.17335 8.31346 6.98001L13.7801 1.51335C13.9735 1.32001 14.2935 1.32001 14.4868 1.51335C14.6801 1.70668 14.6801 2.02668 14.4868 2.22001L9.02012 7.68668C8.92012 7.78668 8.79346 7.83335 8.66679 7.83335Z" fill="#171717"/>
<path d="M14.6668 5.03331C14.3935 5.03331 14.1668 4.80665 14.1668 4.53331V1.83331H11.4668C11.1935 1.83331 10.9668 1.60665 10.9668 1.33331C10.9668 1.05998 11.1935 0.833313 11.4668 0.833313H14.6668C14.9401 0.833313 15.1668 1.05998 15.1668 1.33331V4.53331C15.1668 4.80665 14.9401 5.03331 14.6668 5.03331Z" fill="#171717"/>
<path d="M10.0002 15.1666H6.00016C2.38016 15.1666 0.833496 13.62 0.833496 9.99998V5.99998C0.833496 2.37998 2.38016 0.833313 6.00016 0.833313H7.3335C7.60683 0.833313 7.8335 1.05998 7.8335 1.33331C7.8335 1.60665 7.60683 1.83331 7.3335 1.83331H6.00016C2.92683 1.83331 1.8335 2.92665 1.8335 5.99998V9.99998C1.8335 13.0733 2.92683 14.1666 6.00016 14.1666H10.0002C13.0735 14.1666 14.1668 13.0733 14.1668 9.99998V8.66665C14.1668 8.39331 14.3935 8.16665 14.6668 8.16665C14.9402 8.16665 15.1668 8.39331 15.1668 8.66665V9.99998C15.1668 13.62 13.6202 15.1666 10.0002 15.1666Z" fill="#171717"/>
</svg>
