<svg width="30" height="30" viewBox="0 0 30 30" fill="none" xmlns="http://www.w3.org/2000/svg">
<path d="M18.6814 1.5625C16.972 1.56248 15.594 1.56246 14.5103 1.70816C13.3852 1.85943 12.4379 2.18304 11.6855 2.93544C11.0293 3.5916 10.6977 4.39794 10.5237 5.34544C10.3546 6.26614 10.3222 7.39287 10.3147 8.74478C10.3118 9.26254 10.7292 9.6846 11.247 9.68749C11.7647 9.69037 12.1868 9.27298 12.1897 8.75522C12.1973 7.38835 12.2328 6.41949 12.3679 5.68418C12.498 4.97567 12.707 4.56558 13.0113 4.26126C13.3572 3.91531 13.843 3.68975 14.7602 3.56644C15.7044 3.43949 16.9558 3.4375 18.75 3.4375H20C21.7943 3.4375 23.0457 3.43949 23.9899 3.56644C24.9071 3.68975 25.3928 3.91531 25.7388 4.26126C26.0847 4.60722 26.3103 5.09293 26.4336 6.01015C26.5605 6.95434 26.5625 8.20573 26.5625 10V20C26.5625 21.7943 26.5605 23.0457 26.4336 23.9899C26.3103 24.9071 26.0847 25.3928 25.7388 25.7387C25.3928 26.0847 24.9071 26.3103 23.9899 26.4336C23.0457 26.5605 21.7943 26.5625 20 26.5625H18.75C16.9558 26.5625 15.7044 26.5605 14.7602 26.4336C13.843 26.3103 13.3572 26.0847 13.0113 25.7387C12.707 25.4344 12.498 25.0243 12.3679 24.3158C12.2328 23.5805 12.1973 22.6117 12.1897 21.2448C12.1868 20.727 11.7647 20.3096 11.247 20.3125C10.7292 20.3154 10.3118 20.7375 10.3147 21.2552C10.3222 22.6071 10.3546 23.7339 10.5237 24.6546C10.6977 25.6021 11.0293 26.4084 11.6855 27.0646C12.4379 27.817 13.3852 28.1406 14.5103 28.2919C15.594 28.4375 16.9719 28.4375 18.6814 28.4375H20.0686C21.7781 28.4375 23.156 28.4375 24.2397 28.2919C25.3649 28.1406 26.3122 27.817 27.0646 27.0646C27.817 26.3122 28.1406 25.3648 28.2919 24.2397C28.4376 23.156 28.4376 21.7781 28.4375 20.0686V9.93142C28.4376 8.22193 28.4376 6.84402 28.2919 5.76031C28.1406 4.63518 27.817 3.68783 27.0646 2.93544C26.3122 2.18304 25.3649 1.85943 24.2397 1.70816C23.156 1.56246 21.7781 1.56248 20.0686 1.5625H18.6814Z" fill="white"/>
<path d="M2.50098 14.0613C1.98321 14.0613 1.56348 14.481 1.56348 14.9988C1.56348 15.5165 1.98321 15.9363 2.50098 15.9363L17.4667 15.9363L15.0159 18.037C14.6227 18.3739 14.5772 18.9658 14.9142 19.3589C15.2511 19.752 15.843 19.7975 16.2361 19.4606L20.6111 15.7106C20.8189 15.5325 20.9385 15.2725 20.9385 14.9988C20.9385 14.7251 20.8189 14.4651 20.6111 14.287L16.2361 10.537C15.843 10.2 15.2511 10.2455 14.9142 10.6387C14.5772 11.0318 14.6227 11.6236 15.0159 11.9606L17.4667 14.0613L2.50098 14.0613Z" fill="white"/>
</svg>
