<svg width="30" height="30" viewBox="0 0 30 30" fill="none" xmlns="http://www.w3.org/2000/svg">
<path d="M10.4397 25.3023C11.4911 26.6388 13.1427 27.5 15 27.5C16.8573 27.5 18.5089 26.6388 19.5603 25.3023C16.533 25.7125 13.467 25.7125 10.4397 25.3023Z" fill="white"/>
<path d="M23.4364 11.25V12.1301C23.4364 13.1864 23.7379 14.219 24.3028 15.0978L25.687 17.2514C26.9515 19.2186 25.9862 21.8924 23.787 22.5144C18.0341 24.1418 11.9659 24.1418 6.21295 22.5144C4.01381 21.8924 3.04853 19.2186 4.31295 17.2514L5.69725 15.0978C6.26215 14.219 6.56359 13.1864 6.56359 12.1301V11.25C6.56359 6.41751 10.3407 2.5 15 2.5C19.6593 2.5 23.4364 6.41751 23.4364 11.25Z" fill="white"/>
</svg>
