<svg width="50" height="50" viewBox="0 0 50 50" fill="none" xmlns="http://www.w3.org/2000/svg">
<path d="M45.8332 25C45.8332 13.5209 36.479 4.16669 24.9998 4.16669C13.5207 4.16669 4.1665 13.5209 4.1665 25C4.1665 31.0417 6.77067 36.4792 10.8957 40.2917C10.8957 40.3125 10.8957 40.3125 10.8748 40.3334C11.0832 40.5417 11.3332 40.7084 11.5415 40.8959C11.6665 41 11.7707 41.1042 11.8957 41.1875C12.2707 41.5 12.6873 41.7917 13.0832 42.0834C13.229 42.1875 13.354 42.2709 13.4998 42.375C13.8957 42.6459 14.3123 42.8959 14.7498 43.125C14.8957 43.2084 15.0623 43.3125 15.2082 43.3959C15.6248 43.625 16.0623 43.8334 16.5207 44.0209C16.6873 44.1042 16.854 44.1875 17.0207 44.25C17.479 44.4375 17.9373 44.6042 18.3957 44.75C18.5623 44.8125 18.729 44.875 18.8957 44.9167C19.3957 45.0625 19.8957 45.1875 20.3957 45.3125C20.5415 45.3542 20.6873 45.3959 20.854 45.4167C21.4373 45.5417 22.0207 45.625 22.6248 45.6875C22.7082 45.6875 22.7915 45.7084 22.8748 45.7292C23.5832 45.7917 24.2915 45.8334 24.9998 45.8334C25.7082 45.8334 26.4165 45.7917 27.104 45.7292C27.1873 45.7292 27.2707 45.7084 27.354 45.6875C27.9582 45.625 28.5415 45.5417 29.1248 45.4167C29.2707 45.3959 29.4165 45.3334 29.5832 45.3125C30.0832 45.1875 30.604 45.0834 31.0832 44.9167C31.2498 44.8542 31.4165 44.7917 31.5832 44.75C32.0415 44.5834 32.5207 44.4375 32.9582 44.25C33.1248 44.1875 33.2915 44.1042 33.4582 44.0209C33.8957 43.8334 34.3332 43.625 34.7707 43.3959C34.9373 43.3125 35.0832 43.2084 35.229 43.125C35.6457 42.875 36.0623 42.6459 36.479 42.375C36.6248 42.2917 36.7498 42.1875 36.8957 42.0834C37.3123 41.7917 37.7082 41.5 38.0832 41.1875C38.2082 41.0834 38.3123 40.9792 38.4373 40.8959C38.6665 40.7084 38.8957 40.5209 39.104 40.3334C39.104 40.3125 39.104 40.3125 39.0832 40.2917C43.229 36.4792 45.8332 31.0417 45.8332 25ZM35.2915 35.3542C29.6457 31.5625 20.3957 31.5625 14.7082 35.3542C13.7915 35.9584 13.0415 36.6667 12.4165 37.4375C9.24984 34.2292 7.2915 29.8334 7.2915 25C7.2915 15.2292 15.229 7.29169 24.9998 7.29169C34.7707 7.29169 42.7082 15.2292 42.7082 25C42.7082 29.8334 40.7498 34.2292 37.5832 37.4375C36.979 36.6667 36.2082 35.9584 35.2915 35.3542Z" fill="white"/>
<path d="M25 14.4375C20.6875 14.4375 17.1875 17.9375 17.1875 22.25C17.1875 26.4792 20.5 29.9167 24.8958 30.0417C24.9583 30.0417 25.0417 30.0417 25.0833 30.0417C25.125 30.0417 25.1875 30.0417 25.2292 30.0417C25.25 30.0417 25.2708 30.0417 25.2708 30.0417C29.4792 29.8958 32.7917 26.4792 32.8125 22.25C32.8125 17.9375 29.3125 14.4375 25 14.4375Z" fill="white"/>
</svg>
